<svg width="141" height="81" viewBox="0 0 141 81" fill="none" xmlns="http://www.w3.org/2000/svg">
<path d="M132.162 1.29137L131.403 0H10.47L9.71032 1.29137C9.33051 1.89907 0.974609 16.408 0.974609 40.1083C0.974609 63.8087 9.33051 78.3176 9.71032 78.9253L10.47 80.2167H21.1807V80.2926H109.677V80.2167H131.403L132.162 78.9253C132.542 78.3176 140.898 63.8087 140.898 40.1083C140.898 16.408 132.542 1.89907 132.162 1.29137ZM104.36 74.8233H26.4981V5.31739H104.36V74.8233ZM13.5844 74.8233C11.6854 70.8732 6.292 58.2634 6.292 40.0324C6.292 21.8013 11.6854 9.19149 13.5844 5.24143H21.1807V74.8233H13.5844ZM128.288 74.8233H109.677V5.24143H128.288C130.187 9.19149 135.581 21.8013 135.581 40.0324C135.581 58.2634 130.187 70.8732 128.288 74.8233Z" fill="#152A6F"/>
<path d="M119.932 24.9158C117.198 24.9158 114.919 27.1187 114.919 29.9293C114.919 32.7399 117.122 34.9429 119.932 34.9429C122.667 34.9429 124.946 32.7399 124.946 29.9293C124.946 27.1187 122.667 24.9158 119.932 24.9158Z" fill="#152A6F"/>
<path d="M119.932 45.4258C117.198 45.4258 114.919 47.6287 114.919 50.4393C114.919 53.174 117.122 55.4529 119.932 55.4529C122.667 55.4529 124.946 53.2499 124.946 50.4393C124.946 47.7047 122.667 45.4258 119.932 45.4258Z" fill="#152A6F"/>
<path d="M44.4251 49.7556C46.8559 50.971 49.5146 51.5787 52.2493 51.5787C54.5282 51.5787 56.883 51.1229 59.1619 50.2873C59.7696 50.0594 60.3773 49.8315 60.909 49.5277C60.4533 50.1354 59.9975 50.7431 59.6177 51.3508C58.6302 52.7181 57.4148 54.0854 56.1994 55.3768C53.0089 58.8711 50.2743 61.9096 51.0339 65.176C51.4137 66.9231 52.781 68.2905 54.908 69.202C57.2628 70.1896 59.6177 70.6453 61.8206 70.6453C67.5938 70.6453 72.4554 67.4549 75.4179 61.5298C77.6209 57.124 77.7728 51.7306 75.9497 46.793C75.7218 46.1853 75.4939 45.5776 75.19 45.0459C75.7977 45.5017 76.4054 45.9574 77.0131 46.3372C78.3805 47.3248 79.7478 48.5402 81.0392 49.7556C84.1536 52.5662 86.8883 55.073 89.7749 55.073C90.1547 55.073 90.5345 54.997 90.9143 54.921C92.6615 54.5412 94.0288 53.1739 94.9404 51.0469C98.4346 42.4632 95.4721 34.639 87.2681 30.537C82.8623 28.3341 77.4689 28.1822 72.5313 30.0053C71.9236 30.2331 71.3159 30.461 70.7842 30.7649C71.24 30.1572 71.6958 29.5495 72.0756 28.9418C73.0631 27.5744 74.2785 26.2071 75.4939 24.9158C78.6843 21.4215 81.419 18.383 80.6594 15.1166C80.2795 13.3694 78.9122 12.0021 76.7853 11.0905C68.2015 7.59625 60.3773 10.5588 56.2753 18.7628C54.0724 23.1686 53.9205 28.562 55.7436 33.4995C55.9715 34.1072 56.1994 34.7149 56.5032 35.2467C55.8955 34.7909 55.2878 34.3351 54.6801 33.9553C53.3128 32.9678 51.9454 31.7524 50.6541 30.537C47.1598 27.3466 44.1213 24.6119 40.8549 25.3715C39.1077 25.7513 37.7404 27.1187 36.8289 29.2456C33.3346 37.7535 36.2212 45.6536 44.4251 49.7556ZM70.6323 59.099C66.6063 67.0751 59.6177 65.3279 56.8071 64.1885C56.5032 64.0366 56.2753 63.9606 56.1234 63.8846C56.4272 62.8212 58.6302 60.3904 59.9975 58.9471C61.2889 57.5038 62.6562 56.0605 63.7956 54.5412C65.9226 51.7306 67.9736 48.5402 68.8851 45.1978C69.6448 46.1853 70.3284 47.4007 70.8602 48.6921C72.2275 52.1864 72.1515 55.9845 70.6323 59.099ZM74.2785 35.0188C77.8487 33.6515 81.6469 33.8034 84.7614 35.3227C92.7374 39.2727 90.9903 46.2613 89.8509 49.0719C89.6989 49.3758 89.623 49.6036 89.547 49.7556C88.4835 49.4517 86.0527 47.2488 84.6094 45.8815C83.1661 44.5901 81.7228 43.2228 80.2036 42.0833C77.393 39.9564 74.2025 37.9054 70.8602 36.9938C71.7717 36.1582 72.9871 35.4746 74.2785 35.0188ZM60.909 21.1176C63.3399 16.332 66.7582 15.0406 69.7967 15.0406C71.7717 15.0406 73.5189 15.5723 74.6583 16.0281C74.9622 16.18 75.19 16.256 75.342 16.332C75.0381 17.3954 72.8352 19.8263 71.4679 21.2695C70.1765 22.7128 68.8092 24.1561 67.6697 25.6754C65.5428 28.486 63.4918 31.6764 62.5802 35.0188C61.8206 34.0313 61.1369 32.8159 60.6052 31.5245C59.3138 28.0302 59.3898 24.2321 60.909 21.1176ZM41.6905 31.2207C41.8424 30.9168 41.9184 30.6889 41.9943 30.537C43.0578 30.8408 45.4886 33.0438 46.9319 34.4111C48.3752 35.7025 49.8185 37.0698 51.3377 38.2092C54.1484 40.3362 57.3388 42.3872 60.6812 43.2987C59.6936 44.0584 58.4782 44.742 57.1869 45.2738C53.6166 46.6411 49.8185 46.4892 46.704 44.9699C38.8039 40.9439 40.551 34.0313 41.6905 31.2207Z" fill="#152A6F"/>
</svg>
