<svg width="149" height="91" viewBox="0 0 149 91" fill="none" xmlns="http://www.w3.org/2000/svg">
<path d="M42.1716 15.4203C44.1853 15.4203 45.8178 13.7879 45.8178 11.7741C45.8178 9.76038 44.1853 8.12793 42.1716 8.12793C40.1579 8.12793 38.5254 9.76038 38.5254 11.7741C38.5254 13.7879 40.1579 15.4203 42.1716 15.4203Z" fill="#152A6F"/>
<path d="M115.552 15.4203C117.527 15.4203 119.198 13.8251 119.198 11.7741C119.198 9.7991 117.603 8.12793 115.552 8.12793C113.501 8.12793 111.906 9.72314 111.906 11.7741C111.981 13.7492 113.577 15.4203 115.552 15.4203Z" fill="#152A6F"/>
<path d="M42.1716 79.7609C44.1853 79.7609 45.8178 78.1285 45.8178 76.1147C45.8178 74.101 44.1853 72.4685 42.1716 72.4685C40.1579 72.4685 38.5254 74.101 38.5254 76.1147C38.5254 78.1285 40.1579 79.7609 42.1716 79.7609Z" fill="#152A6F"/>
<path d="M115.552 72.5444C113.577 72.5444 111.906 74.1396 111.906 76.1906C111.906 78.2416 113.501 79.8369 115.552 79.8369C117.603 79.8369 119.198 78.2416 119.198 76.1906C119.198 74.1396 117.603 72.5444 115.552 72.5444Z" fill="#152A6F"/>
<path d="M134.998 7.14049H129.681C129.681 12.4579 128.921 16.1041 127.706 18.7628V0H28.954V48.0844C27.6626 44.4382 26.903 39.6525 26.903 33.2717H21.5856C21.5097 57.2759 10.723 59.2509 0.543945 59.2509V64.5683C10.723 64.5683 21.5097 66.5434 21.5097 90.6235H26.827C26.827 84.2427 27.5867 79.457 28.878 75.8108V87.737H127.63V36.0823C128.845 38.665 129.605 42.3872 129.605 47.7046H134.922C134.922 31.4486 141.911 30.0812 148.975 30.0812V24.7639C141.911 24.7639 134.998 23.3965 134.998 7.14049ZM24.1684 73.2281C21.8895 67.3789 18.3952 63.8847 14.3692 61.9096C18.3952 59.8586 21.8895 56.4403 24.1684 50.5912C26.4472 56.4403 29.9415 59.9346 33.9675 61.9096C29.9415 63.9606 26.4472 67.3789 24.1684 73.2281ZM34.2714 82.4196V67.9867C37.4618 65.5558 41.26 64.7962 45.21 64.6443V71.8608H111.45V15.8762H45.21V59.2509C41.3359 59.023 37.4618 58.3394 34.2714 55.9086V5.31739H122.388V23.8523C120.337 24.6119 117.982 24.7639 115.627 24.7639V30.0812C117.982 30.0812 120.337 30.2332 122.388 30.9928V82.3436H34.2714V82.4196ZM50.5274 61.074H106.132V66.4674H50.5274V61.074ZM106.132 55.7566H50.5274V46.7931H106.132V55.7566ZM106.132 41.4757H50.5274V32.512H106.132V41.4757ZM106.132 27.2706H50.5274V21.1936H106.132V27.2706ZM132.339 33.5755C131.124 31.0688 129.529 29.2456 127.706 27.9543V26.8908C129.529 25.5994 131.124 23.7763 132.339 21.2696C133.783 24.1562 135.682 26.1312 137.809 27.4226C135.606 28.7139 133.707 30.689 132.339 33.5755Z" fill="#152A6F"/>
</svg>
