<svg width="54" height="72" viewBox="0 0 54 72" fill="none" xmlns="http://www.w3.org/2000/svg">
<path d="M36.9758 21.6805H34.0584L35.7745 12.1846C36.1178 10.3541 35.1453 8.52356 33.4292 7.83712C32.9144 7.6083 32.3423 7.4939 31.8275 7.4939C30.6262 7.4939 29.4249 8.06594 28.624 9.09561L14.5518 27.8013C13.6366 29.0026 13.465 30.6616 14.1514 31.9772C14.8379 33.3501 16.2108 34.2082 17.7553 34.2082H21.9312L19.5858 41.7592C19.0138 43.5897 19.8146 45.5918 21.5307 46.5071C22.1028 46.7931 22.7892 46.9647 23.4185 46.9647C24.6198 46.9647 25.7638 46.4499 26.5647 45.4202L40.1793 28.1446C41.1518 26.9433 41.3233 25.2844 40.6369 23.9115C39.9504 22.5386 38.5203 21.6805 36.9758 21.6805ZM23.3613 42.9604L27.3656 30.2039H17.7553L31.8275 11.4982L29.3105 25.742H36.9758L23.3613 42.9604Z" fill="#152A6F"/>
<path d="M27.3652 0C12.8354 0 0.994141 11.8413 0.994141 26.3711C0.994141 34.0364 4.31194 41.2442 10.0323 46.2781C10.3184 46.6213 12.3777 49.1955 12.3777 52.685V64.5834C12.3777 65.0983 12.6065 65.6131 12.9497 66.0135L17.5833 70.6471C17.9838 71.0475 18.4414 71.2191 19.0134 71.2191H35.717C36.2318 71.2191 36.7467 70.9903 37.1471 70.6471L41.7806 66.0135C42.181 65.6131 42.3527 65.1555 42.3527 64.5834V60.6363C42.3527 60.5219 42.4098 60.3503 42.4098 60.2359C42.4098 60.1215 42.4099 59.9499 42.3527 59.8355V53.0854C42.3527 52.971 42.4098 52.7994 42.4098 52.685C42.4098 52.5706 42.4099 52.5134 42.3527 52.3989C42.4671 49.0239 44.412 46.5641 44.6408 46.2781C50.4184 41.2442 53.6791 34.0364 53.6791 26.3711C53.7935 11.8413 41.9523 0 27.3652 0ZM38.4056 54.6871V58.2338H16.382V54.6871H38.4056ZM34.9161 67.2148H19.8715L16.382 63.7254V62.2381H38.4056V63.7826L34.9161 67.2148ZM41.9523 43.4179C41.8378 43.5323 41.7234 43.6467 41.609 43.8183C40.9798 44.562 39.1492 47.1362 38.5772 50.6828H16.2676C15.6956 47.079 13.865 44.562 13.2358 43.8183C13.1214 43.6467 13.007 43.5323 12.8925 43.4179C7.91579 39.1276 5.05562 32.9496 5.05562 26.3711C5.05562 14.015 15.1235 4.00429 27.4224 4.00429C39.7213 4.00429 49.7892 14.0722 49.7892 26.3711C49.7892 32.9496 46.929 39.1276 41.9523 43.4179Z" fill="#152A6F"/>
</svg>
