<svg width="107" height="111" viewBox="0 0 107 111" fill="none" xmlns="http://www.w3.org/2000/svg">
<path d="M9.82568 91.2312H97.5626V19.3705H9.82568V91.2312ZM39.6031 65.0241C39.6031 65.0241 40.2108 57.8076 47.4272 53.7816C58.8216 47.4767 52.2129 37.2217 50.2379 32.7399C54.6437 34.3351 64.5189 45.9574 59.8851 55.5287C57.6062 60.2384 57.9861 70.4175 62.3919 70.4175C62.9236 70.4175 63.5313 70.2655 64.139 69.9617C69.3805 67.3789 63.9111 55.073 63.9111 55.073C63.9111 55.073 76.7488 64.1885 76.5969 71.7848C76.521 75.1271 75.5334 79.3051 72.343 82.2676C70.2161 84.2427 62.0121 85.4581 55.0995 85.4581C54.6437 85.4581 54.2639 85.4581 53.8081 85.4581C42.1098 85.4581 38.1598 85.0783 36.0328 83.1792C27.1452 75.355 30.2597 60.6183 34.8934 55.7567C33.5261 64.8722 39.6031 65.0241 39.6031 65.0241ZM15.1431 24.7638H92.2452V85.9898H76.2171C81.1547 81.2801 81.9903 75.1271 82.0662 71.8607C82.2182 61.9856 69.6084 52.4902 67.1016 50.7431C66.8737 50.5912 66.7218 50.5152 66.4939 50.3633C66.4939 47.6286 65.9621 44.818 64.8227 42.0074C62.24 35.6265 56.7707 29.5495 52.1369 27.8023C51.5292 27.5744 50.9215 27.4985 50.3138 27.4985C48.8705 27.4985 47.4272 28.1062 46.4397 29.1697C44.9964 30.689 44.6166 32.9678 45.4522 34.9428C45.6801 35.4746 45.9839 36.0823 46.2878 36.69C49.858 44.0584 49.5542 46.6411 44.9205 49.2238C42.7935 50.3633 41.1223 51.7306 39.755 53.2498C39.2233 52.2623 38.4636 51.5027 37.4002 50.971C36.6405 50.5912 35.8809 50.4393 35.0453 50.4393C33.602 50.4393 32.2347 51.0469 31.1712 52.1104C27.2971 56.2124 24.9423 63.6568 25.2461 70.7973C25.55 76.8743 27.6769 82.1157 31.4751 86.0658H15.1431V24.7638Z" fill="#152A6F"/>
<path d="M97.4866 9.34341V0H66.4938V9.34341H0.558105V110.83H106.678V9.34341H97.4866ZM71.8112 5.31739H92.1692V9.34341H71.8112V5.31739ZM101.361 105.436H5.8755V14.6608H66.4938H97.4866H101.361V105.436Z" fill="#152A6F"/>
<path d="M15.1431 95.0294H9.82568V102.018H15.1431V95.0294Z" fill="#152A6F"/>
<path d="M26.9172 95.0294H21.5999V102.018H26.9172V95.0294Z" fill="#152A6F"/>
<path d="M38.6914 95.0294H33.374V102.018H38.6914V95.0294Z" fill="#152A6F"/>
<path d="M50.4656 95.0294H45.1482V102.018H50.4656V95.0294Z" fill="#152A6F"/>
<path d="M62.2398 95.0294H56.9224V102.018H62.2398V95.0294Z" fill="#152A6F"/>
<path d="M74.0144 95.0294H68.697V102.018H74.0144V95.0294Z" fill="#152A6F"/>
<path d="M85.7886 95.0294H80.4712V102.018H85.7886V95.0294Z" fill="#152A6F"/>
<path d="M97.4868 95.0294H92.1694V102.018H97.4868V95.0294Z" fill="#152A6F"/>
</svg>
