<svg width="14" height="15" viewBox="0 0 14 15" fill="none" xmlns="http://www.w3.org/2000/svg">
<path d="M1.28813 0.787197L1.821 0.254325C2.1601 -0.0847751 2.69297 -0.0847751 3.03207 0.254325L4.77602 1.99827C5.11512 2.33737 5.11512 2.87024 4.77602 3.20934L4.38848 3.64533C3.8556 4.1782 3.32273 5.82526 5.79332 8.24741C8.26391 10.6696 9.86252 10.1851 10.3954 9.65225L10.7829 9.26471C11.122 8.92561 11.6549 8.92561 11.994 9.26471L13.738 11.0087C14.0771 11.3478 14.0771 11.8806 13.738 12.2197L13.2051 12.7526C11.7518 14.2059 9.86252 15.5623 4.14626 9.84602C-1.57 4.12976 -0.165157 2.24048 1.28813 0.787197Z" fill="white"/>
</svg>
