<svg width="116" height="98" viewBox="0 0 116 98" fill="none" xmlns="http://www.w3.org/2000/svg">
<path d="M115.154 37.495H109.097V0H78.057V37.495H72.0004V58.8453H77.83C76.8458 63.5227 72.6818 66.9931 67.6851 66.9931C61.9313 66.9931 57.3131 62.3911 57.3131 56.6574V49.0377V44.662V39.532C57.3131 21.6521 42.7015 7.09163 24.7588 7.09163H21.5791V0.0754703H0.153809V43.0778H21.5791V38.0231H24.7588C25.5916 38.0231 26.273 38.7021 26.273 39.532V44.7375V49.1132V56.7329C26.273 79.5165 44.8214 98 67.6851 98C89.7918 98 107.886 80.6482 109.021 58.9207H115.154V37.495ZM5.45335 5.28098H16.2795V7.0162V37.7213H5.45335V5.28098ZM24.7588 32.7421H21.5791V12.3726H24.7588C39.8247 12.3726 52.0136 24.5189 52.0136 39.532V43.8322H31.5725V39.532C31.5725 35.7598 28.5442 32.7421 24.7588 32.7421ZM67.6851 92.719C47.774 92.719 31.5725 76.5743 31.5725 56.7329V50.0185H52.0136V56.7329C52.0136 65.3333 59.0544 72.3495 67.6851 72.3495C75.4073 72.3495 81.8425 66.7667 83.1295 59.3734H103.722C102.359 77.9323 86.6877 92.719 67.6851 92.719ZM83.3566 5.28098H103.798V37.495H83.3566V5.28098ZM109.854 53.6397H77.2999V42.8515H78.057H109.097H109.854V53.6397Z" fill="#152A6F"/>
</svg>
