<svg width="131" height="97" viewBox="0 0 131 97" fill="none" xmlns="http://www.w3.org/2000/svg">
<path d="M130.08 84.4075L96.3286 45.4091L96.4803 45.2565L51.5036 0L0.0800781 51.7435L45.0567 97L45.5118 96.5421L45.5877 96.9237L130.08 84.4075ZM63.8665 36.9378L71.9821 28.7718L81.8421 38.6932L73.7265 46.8592L63.8665 36.9378ZM40.2026 60.8253L48.3181 52.6593L58.1781 62.5806L50.0626 70.7467L40.2026 60.8253ZM21.4686 65.786L29.5842 57.62L39.4442 67.5413L31.3286 75.7073L21.4686 65.786ZM44.5258 48.8434L36.4103 57.0094L26.4745 47.0118L34.59 38.8458L44.5258 48.8434ZM45.2084 41.9748L53.324 33.8088L63.1839 43.7301L55.0684 51.8961L45.2084 41.9748ZM68.2656 25.0323L60.1501 33.1983L50.2142 23.2006L58.3298 15.0346L68.2656 25.0323ZM54.5375 11.2187L46.4219 19.3847L43.0847 16.0268L51.2003 7.86074L54.5375 11.2187ZM49.5317 30.0692L41.4161 38.1589L31.2528 27.9323L39.3683 19.7663L49.5317 30.0692ZM30.8735 35.1062L22.758 43.2722L19.4208 39.9142L27.5363 31.7482L30.8735 35.1062ZM25.8677 53.8804L17.7522 62.0464L7.58885 51.8198L15.6285 43.6538L25.8677 53.8804ZM35.1209 79.5232L43.2365 71.3572L53.0964 81.2785L44.9809 89.4445L35.1209 79.5232ZM56.8887 77.6153L53.779 74.5625L61.8945 66.3965L64.9284 69.4492L56.8887 77.6153ZM68.7207 65.6334L58.8607 55.712L66.9762 47.546L76.8362 57.4674L68.7207 65.6334ZM80.5526 53.7278L77.5188 50.6751L85.6344 42.509L88.6682 45.5618L80.5526 53.7278ZM92.6122 49.225L119.765 80.5153L51.2761 90.7419L92.6122 49.225Z" fill="#152A6F"/>
</svg>
