<svg width="127" height="100" viewBox="0 0 127 100" fill="none" xmlns="http://www.w3.org/2000/svg">
<path d="M126.043 43.3534L63.0215 0L0 43.3534L3.34775 48.2076L14.9812 40.173V99.6794H112.736V41.2611L122.779 48.124L126.043 43.3534ZM106.793 93.8208H20.8398C20.8398 82.6058 20.8398 42.8512 20.8398 36.1557L63.0215 7.11398L106.793 37.2438V93.8208Z" fill="#152A6F"/>
<path d="M54.0663 23.6855C53.8989 23.6855 53.7315 23.7691 53.5641 23.7691C49.2957 25.1919 46.1991 27.7864 44.2741 31.469C41.0937 31.8037 38.3319 33.5613 36.3232 36.4906C34.0635 39.922 31.5526 44.86 31.72 50.049C28.9581 53.062 27.9538 59.0879 28.0375 62.7705V63.0216C28.2049 72.2279 32.4733 77.5843 40.759 78.9234C42.0144 81.0994 44.86 84.6983 50.1327 86.1211C56.2423 87.7949 63.5237 87.7949 63.7748 87.7949C64.0259 87.7949 71.3072 87.7949 77.4169 86.1211C82.6059 84.6983 85.4515 81.0994 86.7906 78.9234C94.9926 77.5843 99.261 72.2279 99.512 63.0216V62.7705C99.5957 59.0879 98.5914 53.062 95.8295 50.049C95.9969 44.86 93.4861 39.922 91.2264 36.4906C89.3014 33.5613 86.4558 31.8037 83.2754 31.469C81.3505 27.7864 78.3375 25.1919 73.9854 23.7691C73.818 23.6854 73.6507 23.6855 73.4833 23.6855C68.9638 23.0159 65.7834 25.0245 63.7748 27.5354C61.7661 25.0245 58.5858 23.0159 54.0663 23.6855ZM45.3621 75.1572C45.3621 75.0735 45.2784 75.0735 45.2784 74.9898C45.1947 74.9061 45.1947 74.8224 45.111 74.7387C45.0274 74.655 45.0274 74.5713 44.9437 74.4876C44.86 74.4039 44.86 74.3202 44.7763 74.2365C44.6926 74.1528 44.6089 74.0691 44.6089 74.0691C44.5252 73.9854 44.4415 73.9854 44.3578 73.9018C44.2741 73.8181 44.1904 73.8181 44.1067 73.7344C44.023 73.6507 43.9393 73.6507 43.8556 73.567C43.7719 73.4833 43.6883 73.4833 43.6046 73.4833C43.5209 73.4833 43.4372 73.3996 43.3535 73.3996C43.2698 73.3996 43.1024 73.3159 43.0187 73.3159C42.935 73.3159 42.935 73.3159 42.8513 73.3159C35.0678 72.5626 33.8961 67.8758 33.8124 62.8542V62.6031C33.7287 60.0923 34.3145 57.5815 34.9004 55.9076C36.4069 57.2467 38.4155 58.8369 41.0937 60.0923C40.3405 61.4314 40.0057 62.7705 39.8383 63.7748C39.6709 65.365 40.759 66.7878 42.3492 66.9552C42.4328 66.9552 42.6002 66.9552 42.6839 66.9552C44.1067 66.9552 45.3621 65.8671 45.6132 64.4443C45.6132 64.4443 45.948 62.352 47.2034 62.1009C50.2164 61.4314 52.7272 62.1846 52.8109 62.1846C54.3174 62.6868 55.9912 61.7661 56.4934 60.2597C56.9956 58.7532 56.0749 57.0793 54.5684 56.5771C54.2337 56.4934 51.137 55.5728 47.2034 56.1586C46.8686 55.9076 46.5338 55.7402 46.1154 55.6565C41.5959 54.5685 38.5829 51.3881 37.5786 50.1327C37.3275 46.3665 39.4199 42.4329 41.1774 39.671C42.0144 38.4156 43.5209 36.9928 45.8643 37.2438C47.2034 37.4112 48.4588 36.5743 48.8773 35.4026C50.049 32.3896 51.9739 30.5483 55.0706 29.3766C59.0042 28.9582 60.427 33.2265 60.7618 34.4819V39.8384C58.251 39.3362 55.1543 39.0014 52.8109 40.0057C50.4675 41.0101 49.4631 42.0981 48.4588 43.2698C47.9566 43.8557 47.2871 44.5252 46.2828 45.4458C45.0274 46.5339 44.9437 48.3751 46.0317 49.5468C46.6175 50.2164 47.4545 50.5512 48.2077 50.5512C48.8773 50.5512 49.5468 50.3001 50.1327 49.7979C51.3881 48.7099 52.225 47.7893 52.8109 47.1197C53.6478 46.1991 53.9826 45.8643 55.1543 45.3621C56.2423 44.86 58.6695 45.2785 60.7618 45.8643V61.5151V66.1182C59.0042 65.616 57.3303 65.5324 55.7402 66.0345C52.0576 67.2062 50.5512 70.6377 50.4675 70.9725C49.8816 72.479 50.5511 74.2365 52.0576 74.8224C52.3924 74.9898 52.8109 75.0735 53.1457 75.0735C54.3174 75.0735 55.4054 74.4039 55.8239 73.2322C55.8239 73.2322 56.4097 71.9768 57.4977 71.642C58.3347 71.3909 59.4227 71.7257 60.7618 72.5626V81.769C58.3347 81.6016 54.6521 81.2668 51.5555 80.4299C47.1197 79.2581 45.4458 75.3245 45.3621 75.1572ZM72.3952 29.4603C75.5756 30.5483 77.5006 32.4733 78.5886 35.4863C79.0907 36.7417 80.3462 37.4949 81.6016 37.3275C83.945 37.0765 85.4515 38.4993 86.2884 39.7547C88.1297 42.5166 90.1383 46.4502 89.8872 50.2164C88.7992 51.4718 85.8699 54.6522 81.3505 55.7402C80.932 55.8239 80.5972 55.9913 80.2625 56.2423C76.3289 55.6565 73.2322 56.5771 72.8974 56.6608C71.3909 57.163 70.4703 58.7532 70.9725 60.3433C71.4746 61.8498 73.0648 62.7705 74.655 62.2683C74.655 62.2683 77.2495 61.5151 80.2625 62.1846C81.5179 62.4357 81.8526 64.528 81.8526 64.528C82.02 66.0345 83.2754 67.1225 84.7819 67.1225C84.8656 67.1225 85.033 67.1225 85.1167 67.1225C86.7069 66.9552 87.8786 65.4487 87.7112 63.8585C87.6275 62.8542 87.209 61.4314 86.4558 60.176C89.0503 59.0042 91.1427 57.4141 92.6491 55.9913C93.235 57.6651 93.7372 60.0923 93.7372 62.6868V62.9379C93.6535 67.8758 92.4818 72.6463 84.6982 73.3996C84.6145 73.3996 84.5308 73.3996 84.3635 73.4833C84.1961 73.4833 84.0287 73.567 83.8613 73.6507C83.6939 73.7343 83.5265 73.8181 83.3591 73.9018C83.1917 73.9854 83.108 74.0691 82.9407 74.2365L82.857 74.3202C82.7733 74.4039 82.6896 74.5713 82.6059 74.655C82.6059 74.7387 82.5222 74.7387 82.5222 74.8224C82.4385 74.9061 82.4385 74.9898 82.3548 75.1572C82.3548 75.2409 82.2711 75.2409 82.2711 75.2409C82.1874 75.4082 80.5135 79.3418 75.9941 80.5136C72.8137 81.3505 69.2149 81.6853 66.7878 81.8527V72.73C68.1269 71.8931 69.2986 71.642 70.0518 71.8094C71.0561 72.1442 71.642 73.3159 71.7257 73.3996C72.2279 74.4876 73.3159 75.2409 74.4039 75.2409C74.7387 75.2409 75.1571 75.1572 75.4919 75.0735C76.9984 74.4876 77.7516 72.73 77.1658 71.3072C76.9984 70.8888 75.5756 67.4573 71.8931 66.3693C70.3029 65.8671 68.629 65.9508 66.8714 66.453V61.8498V46.1991C68.9638 45.6132 71.3909 45.2785 72.4789 45.6969C73.6506 46.1991 73.9854 46.5339 74.8224 47.4545C75.4082 48.124 76.2452 49.0447 77.5006 50.1327C78.0864 50.6349 78.756 50.8859 79.4255 50.8859C80.2625 50.8859 81.0994 50.5512 81.6016 49.8816C82.6896 48.6262 82.5222 46.7849 81.3505 45.7806C80.3462 44.9437 79.7603 44.1904 79.1744 43.6046C78.1701 42.4329 77.1658 41.3448 74.8224 40.3405C72.3952 39.3362 69.2986 39.5873 66.8714 40.1731V34.8167C67.0388 33.3102 68.4616 29.0419 72.3952 29.4603Z" fill="#152A6F"/>
</svg>
