<svg width="113" height="98" viewBox="0 0 113 98" fill="none" xmlns="http://www.w3.org/2000/svg">
<path d="M109.386 27.2706C108.627 24.0802 105.208 22.7128 102.322 22.1051C100.119 21.6494 97.2323 21.4215 94.2698 21.4215C91.3072 21.4215 88.4206 21.6494 86.2177 22.1051C83.3311 22.6369 79.9128 24.0042 79.1532 27.2706C77.8618 28.2581 76.2666 29.9293 76.2666 32.2082V36.4621V49.7556H70.1895V24.1561V15.1925C70.1895 10.6348 65.7078 7.36839 63.6568 6.07702C62.2894 3.57025 58.0355 2.35483 54.2374 1.5952C49.0719 0.607683 42.3113 0 35.0948 0C27.8783 0 21.0417 0.531721 15.9522 1.5952C12.154 2.35483 7.90011 3.49429 6.53278 6.07702C4.48178 7.36839 0 10.6348 0 15.1925V24.1561V73.0002V81.9638C0 87.585 6.76066 91.2312 7.52028 91.611L7.9001 91.763C10.9386 93.0543 20.358 97.0804 35.1707 97.0804C50.2114 97.0804 59.1749 93.2063 62.5933 91.687L62.7453 91.611C63.5049 91.2312 70.2655 87.5091 70.2655 81.9638V80.5964H76.3425V84.2427V88.4966C76.3425 91.9149 79.9128 93.9659 80.6724 94.3457L80.9763 94.4976C82.4956 95.1813 87.1293 97.0804 94.4217 97.0804C101.866 97.0804 106.272 95.1813 108.019 94.4217L108.171 94.3457C108.855 93.9659 112.501 91.9149 112.501 88.4966V84.2427V36.4621V32.2082C112.273 29.8533 110.678 28.1822 109.386 27.2706ZM94.2698 26.7389C99.8151 26.7389 104.297 27.6504 104.297 28.7139C104.297 29.7774 99.8151 30.6889 94.2698 30.6889C88.7245 30.6889 84.2427 29.7774 84.2427 28.7139C84.2427 27.6504 88.7245 26.7389 94.2698 26.7389ZM35.0948 5.31739C46.4892 5.31739 54.0095 6.68471 57.3519 7.82415C54.0095 8.96359 46.4892 10.3309 35.0948 10.3309C23.7004 10.3309 16.18 8.96359 12.8377 7.82415C16.1041 6.68471 23.6244 5.31739 35.0948 5.31739ZM64.8722 81.8878C64.8722 83.559 62.2135 85.8379 60.3144 86.8254C56.8961 88.3447 48.996 91.687 35.0948 91.687C21.3455 91.687 12.7617 88.0408 9.9511 86.8254H9.87516C7.97609 85.8379 5.31739 83.635 5.31739 81.8878V72.9242V24.0802V15.1166C5.31739 13.9012 6.68473 12.4579 8.12802 11.3184C10.1031 12.6858 13.1416 13.5214 15.9522 14.0531C21.1176 15.0406 27.8783 15.6483 35.0948 15.6483C42.3113 15.6483 49.1479 15.1166 54.2374 14.0531C57.048 13.5214 60.0865 12.7617 62.0616 11.3184C63.5049 12.4579 64.8722 13.9012 64.8722 15.1166V24.0802V72.9242V81.8878ZM70.1895 75.2031V72.9242V54.997H76.2666V75.2031H70.1895ZM106.956 84.2427V88.4206C106.804 88.7245 106.12 89.2562 105.588 89.636C103.993 90.3197 100.423 91.8389 94.2698 91.8389C88.1168 91.8389 84.2427 90.2437 82.8754 89.636C82.3436 89.3322 81.6599 88.8004 81.508 88.4966V84.3186V36.5381V33.6515C82.8753 34.563 84.5465 35.1707 86.1417 35.4746C88.3446 35.9304 91.2312 36.1582 94.1937 36.1582C97.1563 36.1582 100.043 35.9304 102.246 35.4746C103.841 35.1707 105.512 34.639 106.88 33.6515V36.5381V84.2427H106.956Z" fill="#152A6F"/>
<path d="M35.095 36.766L32.968 39.5766C32.2083 40.5641 25.5996 49.4518 25.5996 55.2249C25.5996 57.8077 26.4352 59.9346 28.0304 61.5299C30.5371 63.9607 34.1074 64.1126 34.943 64.1126C35.019 64.1126 35.019 64.1126 35.095 64.1126C35.9305 64.1126 39.5008 63.9607 42.0075 61.5299C43.6028 59.9346 44.4384 57.8077 44.4384 55.2249C44.4384 49.3758 37.8296 40.5641 37.07 39.5766L35.095 36.766ZM38.3613 57.7317C37.3738 58.6433 35.7027 58.8712 35.095 58.8712H35.019H34.943C34.3353 58.8712 32.6641 58.6433 31.7526 57.7317C31.2208 57.2 30.917 56.3644 30.917 55.3009C30.917 53.022 32.968 49.072 35.019 45.8815C37.07 49.072 39.121 53.022 39.121 55.3009C39.1969 56.3644 38.8931 57.124 38.3613 57.7317Z" fill="#152A6F"/>
<path d="M55.6045 32.7399H53.3256C47.8563 32.7399 39.5003 26.8908 36.6897 24.6879L35.0185 23.3206L33.3473 24.6879C30.6127 26.9668 22.1808 32.7399 16.7115 32.7399H14.4326L14.0528 35.0188C12.0018 48.2363 9.19122 66.3914 33.5753 81.0522L34.9426 81.8878L36.3099 81.0522C60.7699 66.3914 57.9593 48.2363 55.8323 35.0188L55.6045 32.7399ZM35.0945 75.6589C17.4712 64.4924 17.0154 52.3383 19.1423 37.8294C25.2953 36.8419 31.98 32.3601 35.0945 30.0812C38.209 32.3601 44.8937 36.8419 51.0467 37.8294C53.0977 52.4143 52.6419 64.5683 35.0945 75.6589Z" fill="#152A6F"/>
</svg>
