<?xml version="1.0" encoding="utf-8"?>
<!-- Generator: Adobe Illustrator 19.2.1, SVG Export Plug-In . SVG Version: 6.00 Build 0)  -->
<svg version="1.1" id="layer" xmlns="http://www.w3.org/2000/svg" xmlns:xlink="http://www.w3.org/1999/xlink" x="0px" y="0px"
	 viewBox="0 0 652 652" style="enable-background:new 0 0 652 652;" xml:space="preserve">
<style type="text/css">
	.st0{fill:#F15C19;}
	.st1{fill:#544D42;}
</style>
<path class="st0" d="M158.6,312.2h-13.6c-1.8,0-3.1-2-2.5-4.6c2-4.7,5.1-6.7,9-6.7c3.9,0,7.7,2,9.7,6.7
	C161.9,310.2,160.6,312.2,158.6,312.2 M151.6,282.6c-21.3,0-37.5,14.4-37.5,36.8c0,22.9,16.2,38.8,37.5,38.8
	c13.6,0,25.2-5.2,32.9-14.6c2-2.6,2.6-7.2-3.3-8.5c0,0-8.3-1.3-9.7-2c-2.6,0-5.2-0.7-7.7,2c-2.6,3.3-6.5,4.6-11,4.6
	c-5.2,0-9.7-3.3-11.6-8.5c-0.7-2,0-3.9,2.6-3.9h39.3c3.3,0,6.4-3.3,6.4-6.5C189.6,297,173.5,282.6,151.6,282.6z"/>
<path class="st0" d="M236,284.5h-7.7v-9.2c0-3.9-3.3-6.5-6.5-6.5h-14.7c-3.9,0-6.5,2.6-6.5,6.5v9.2h-3.8c-3.3,0-5.9,2.6-5.9,5.9v8.5
	c0,3.3,2.6,5.9,5.9,5.9h3.8v30.3c0,13.9,10.3,23.1,22.6,23.1c5.9,0,7.7-0.7,11-1.3c3.9-1.3,6.5-3.3,6.5-6.5v-5.9
	c0-4.1-2.6-6.7-6.5-6.7c-2.6,0-5.7-0.7-5.7-5.2v-27.7h7.7c3.9,0,6.4-2.6,6.4-5.9v-8.5C242.4,287.2,240,284.5,236,284.5"/>
<path class="st0" d="M70.9,282.6c-6.4,0-12.8,2-18.7,5.2c-0.7-2-2.6-3.3-5.1-3.3H31.7c-3.3,0-5.7,2.6-5.7,5.9v85.4
	c0,3.3,2.5,6.5,5.7,6.5h15.5c3.1,0,5.7-3.3,5.7-6.5v-22.9c-13.6-11.3-16-36.8,2-47.5c20-11.1,35.5,10,18,21.8
	c-10.3,7.9-10.3,18.5-2,23.7c0.7,0,1.3,0,1.3,0.7c0,0.7-0.7,0.7-1.3,0.7c-9-2.6-15.4-10.6-15.4-20.5c0-3.9,1.3-7.9,3.9-11.1V320
	c0-0.7-0.7-0.7-0.7-0.7c-0.7,0-0.7,0-0.7,0c-4.6,3.9-7.2,9.8-7.2,16.4c0,11.9,8.5,22.4,20,22.4c20.8,0,37.5-17.2,37.5-38.1
	C108.4,298.9,91.7,282.6,70.9,282.6"/>
<path class="st1" d="M370,348.3v-59.9h-16.7v6.5h8.3v45.3C356,345.1,347,351,337.1,351c-8.3,0-11.5-3.9-11.5-12.6v-49.9h-16.9v6.5
	h4.6c2,0,3.1,1.3,3.1,3.3V341c0,13.9,9.7,17.2,18.2,17.2c11.6,0,20.6-5.9,27-11.1v5.2c0,3.3,0.7,5.2,3.3,5.2h12.9v-5.9h-4.6
	C372,351.6,370,349.7,370,348.3"/>
<path class="st1" d="M421.7,296.3c1.1,0,3.1,0,3.1,0h0.7v-7.9h-0.7c0,0-1.3,0-3.1,0c-9.8,0-16.9,6.5-21.3,11.8v-6.5
	c0-3.3-0.7-5.2-3.3-5.2h-13.6v6.5h5.2c1.1,0,2.5,1.3,2.5,3.3v50.1c0,1.3-1.3,3.3-2.5,3.3h-4.6v5.9h26.5v-5.9h-10.3v-44
	C406.8,300.2,412.6,296.3,421.7,296.3"/>
<path class="st1" d="M622.2,351.6c-1.3,0-3.3-2-3.3-3.3v-42.9c0-15.7-10.3-17.7-18-17.7c-12.3,0-21.9,7.2-27.8,11.8v-5.9
	c0-3.3-0.7-5.2-3.1-5.2h-13.6v6.5h5.1c1.3,0,3.3,1.3,3.3,3.3v50.1c0,1.3-2,3.3-3.3,3.3h-4.4v5.9h25.7v-5.9h-9.7v-45.3
	c9-7.4,16.9-10.6,25.2-10.6c7,0,12.3,2,12.3,11.9v44h-9.7v5.9h25v-5.9H622.2"/>
<path class="st1" d="M533.8,341c-4.6,5.4-10.3,10.6-20,10.6c-10.3,0-15.5-4.6-15.5-13.9c0-9.2,7.2-13.7,20-13.7
	c5.2,0,9.8,0,15.5,1.3V341 M546.7,351.6c-3.3,0-4.6-1.3-4.6-5.2v-38.8c0-13.3-7-19.8-23.2-19.8c-11.6,0-19.3,2-24.4,3.9v13.1h6.4
	v-0.7c0.7-5.9,0.7-9.8,17.3-9.8c10.3,0,15.5,4.6,15.5,13.9v11.1c-5.2-1.3-10.3-2-16.7-2c-17.5,0-27.2,7.2-27.2,20.3
	c0,13.3,8.3,20.5,22.6,20.5c8.3,0,15.5-3.3,21.3-9.2c0,5.9,3.9,9.2,10.3,9.2c3.3,0,5.2-1.3,6.4-1.3V351h-0.7
	C549.9,351,548.1,351.6,546.7,351.6z"/>
<path class="st1" d="M280.5,287.8c-20,0-33.5,13.7-33.5,34.9c0,22.4,12.3,35.5,32.9,35.5c16,0,22.6-7.9,22.6-7.9V341
	c0,0-9,10.6-22.6,10.6c-15.5,0-23.9-10.6-23.9-29c0-17.8,9-28.3,24.5-28.3c5.1,0,8.3,0.7,11.6,2c2.5,1.3,3.8,1.3,3.8,7.9l0.7,0.7
	h5.9v-13.1C296.6,289.1,289.5,287.8,280.5,287.8"/>
<path class="st1" d="M433.2,317.4c1.3-14.6,9.8-23.1,22.6-23.1c12.9,0,20,7.2,20,23.1H433.2 M455.8,287.8
	c-18.7,0-31.6,14.4-31.6,35.5c0,21.8,12.3,34.9,32.9,34.9c18.7,0,25.9-7.9,25.9-7.9V341c0,0-10.3,10.6-25.2,10.6
	c-16,0-24.5-10-24.5-27.7h51.7v-0.7c0,0,0,0,0-0.7c0-0.7,0-1.3,0-2.6C484.9,299.6,474.6,287.8,455.8,287.8z"/>
</svg>
